<?xml version="1.0" encoding="UTF-8"?>
<svg version="1.1" xmlns="http://www.w3.org/2000/svg" width="1694" height="318">
<path d="M0 0 C1.04100861 0.05867249 2.08201721 0.11734497 3.15457153 0.17779541 C16.07025689 0.92488758 28.74753093 2.22814757 41.51211548 4.33432007 C44.67280977 4.84746787 47.84172125 5.29841627 51.01171875 5.75 C53.13283561 6.0623431 55.25393018 6.37483762 57.375 6.6875 C58.44943359 6.83960938 59.52386719 6.99171875 60.63085938 7.1484375 C76.56845598 9.52689228 76.56845598 9.52689228 80.890625 13.93383789 C82.91909862 17.04241859 83.25686205 18.75732354 83.41796875 22.43359375 C83.49990479 24.14844971 83.49990479 24.14844971 83.58349609 25.89794922 C83.61781738 27.14850098 83.65213867 28.39905273 83.6875 29.6875 C83.71991791 30.68321014 83.71991791 30.68321014 83.75299072 31.69903564 C83.88919337 35.9821609 83.95917643 40.26243511 83.98266602 44.54760742 C83.99434958 46.0320781 84.01504901 47.5165018 84.04418945 49.00073242 C84.08669873 51.17915468 84.10298768 53.35637208 84.11328125 55.53515625 C84.13515503 57.4534021 84.13515503 57.4534021 84.1574707 59.41040039 C83.6875 62.6875 83.6875 62.6875 81.94116211 65.11010742 C77.42326103 68.27229558 72.08895104 67.04480932 66.86523438 66.26757812 C63.71394903 65.69670825 60.57675202 65.07112522 57.4375 64.4375 C44.05320034 61.88060015 30.6537146 60.35448577 17.09863281 59.03222656 C16.33090546 58.95731995 15.5631781 58.88241333 14.77218628 58.80523682 C13.25186737 58.65716288 11.73146161 58.50997782 10.21096802 58.3637085 C5.42821862 57.89342871 0.68358522 57.29112556 -4.07421875 56.61328125 C-11.15700936 55.63945059 -18.16976537 55.25072604 -25.3125 55.0625 C-26.56289062 55.02527832 -27.81328125 54.98805664 -29.1015625 54.94970703 C-61.56392824 53.14617269 -61.56392824 53.14617269 -93.3984375 57.890625 C-96.82612171 58.8279542 -100.23534398 59.29128849 -103.75 59.8125 C-121.60717921 62.8289301 -140.95910546 72.54805042 -154.3125 84.6875 C-154.9725 84.6875 -155.6325 84.6875 -156.3125 84.6875 C-156.3125 85.3475 -156.3125 86.0075 -156.3125 86.6875 C-157.43426009 87.80926009 -158.55920331 88.92793119 -159.6953125 90.03515625 C-177.79980268 108.53322231 -182.50036422 131.14580288 -182.49780273 156.05371094 C-182.49998277 158.41880481 -182.51817945 160.78342606 -182.53710938 163.1484375 C-182.68693555 181.53515533 -182.68693555 181.53515533 -176.8125 198.6875 C-176.29671387 199.67133667 -176.29671387 199.67133667 -175.77050781 200.67504883 C-171.92562055 207.78638143 -167.23093812 214.28851164 -162.3125 220.6875 C-161.65507812 221.55503906 -160.99765625 222.42257813 -160.3203125 223.31640625 C-137.68916588 250.04229341 -99.73803563 257.50905123 -66.8515625 260.25 C-39.36522643 262.25861687 -11.7274297 259.69395346 15.6875 257.6875 C16.38059265 257.63809265 17.0736853 257.5886853 17.78778076 257.53778076 C19.51381154 257.41399657 21.23936 257.28353289 22.96484375 257.15234375 C23.85292725 257.08523193 24.74101074 257.01812012 25.65600586 256.94897461 C27.75179344 256.7925926 27.75179344 256.7925926 29.6875 255.6875 C31.69963919 246.03669389 30.79120269 235.3853897 30.73209953 225.56410599 C30.71451691 222.54544843 30.70435132 219.52684511 30.69618225 216.50814819 C30.67188475 207.9345794 30.63601404 199.3610849 30.59155273 190.78759766 C30.56475668 185.52181853 30.54772705 180.25608038 30.53668404 174.99024582 C30.53048837 172.99118904 30.5205008 170.99214019 30.50660515 168.9931221 C30.48736308 166.20320659 30.48049013 163.41350815 30.47631836 160.62353516 C30.46317596 159.39376953 30.46317596 159.39376953 30.44976807 158.13916016 C30.45747149 153.620432 30.81947826 149.89465732 32.6875 145.6875 C35.25718314 144.40265843 37.11437195 144.5464488 39.99169922 144.52636719 C41.0997995 144.51675964 42.20789978 144.5071521 43.34957886 144.49725342 C45.15267014 144.4908786 45.15267014 144.4908786 46.9921875 144.484375 C48.22284943 144.47867493 49.45351135 144.47297485 50.72146606 144.46710205 C53.32911313 144.45764201 55.93677221 144.4511141 58.54443359 144.44726562 C61.21970189 144.44287167 63.89464934 144.42894727 66.56982422 144.40625 C70.41904548 144.37585516 74.26785976 144.3652249 78.1171875 144.359375 C79.31519989 144.3470282 80.51321228 144.3346814 81.74752808 144.32196045 C82.86193268 144.32496155 83.97633728 144.32796265 85.12451172 144.33105469 C86.10443085 144.32740906 87.08434998 144.32376343 88.09396362 144.32000732 C91.1445891 144.75226751 92.49064811 145.55417936 94.6875 147.6875 C95.75880219 150.90140658 95.82124843 153.22220946 95.83467102 156.60203552 C95.84540398 158.45487152 95.84540398 158.45487152 95.85635376 160.34513855 C95.85919394 161.71633886 95.86190568 163.08753944 95.86450195 164.45874023 C95.87076747 165.90095178 95.87741435 167.34316171 95.88441467 168.78536987 C95.90544048 173.52226642 95.91581309 178.25916326 95.92578125 182.99609375 C95.92982883 184.62644022 95.93394575 186.25678652 95.93813133 187.88713264 C95.95717679 195.54376935 95.97141129 203.20039643 95.9797433 210.85705227 C95.98952509 219.70006416 96.01587167 228.54282636 96.05624419 237.38575023 C96.08637301 244.21893989 96.10120894 251.05205781 96.10452431 257.88531262 C96.1068778 261.96781274 96.11587708 266.05004592 96.14098549 270.1324749 C96.16421604 273.97142625 96.16852002 277.80993389 96.15822411 281.64893723 C96.15772746 283.05826224 96.16408578 284.46760873 96.17778015 285.87686729 C96.19542201 287.7998244 96.18603277 289.72297305 96.17524719 291.64598083 C96.17763555 292.72242576 96.1800239 293.79887068 96.18248463 294.90793514 C95.56591984 298.37022814 94.38920519 299.51218619 91.6875 301.6875 C84.26641558 305.6163094 74.7234309 306.00270723 66.54296875 307.125 C63.234417 307.60770664 59.95269573 308.15881852 56.66186523 308.74462891 C-21.6780148 322.52820125 -119.47044185 327.44104067 -188.27294922 281.12939453 C-193.92367088 277.13452236 -199.24744881 272.69755555 -204.51416016 268.21386719 C-205.71198823 267.19719313 -206.92010183 266.19251333 -208.13818359 265.20019531 C-212.25834543 261.80052955 -215.5901095 258.18963512 -218.8125 253.9375 C-219.28534424 253.32189209 -219.75818848 252.70628418 -220.24536133 252.07202148 C-221.61080183 250.28429421 -222.96320555 248.48742854 -224.3125 246.6875 C-225.29283203 245.39779297 -225.29283203 245.39779297 -226.29296875 244.08203125 C-234.28071215 233.16971361 -239.59470287 221.53725432 -244.1875 208.875 C-244.56890137 207.82562256 -244.95030273 206.77624512 -245.34326172 205.69506836 C-249.31272275 194.40663479 -250.81542214 183.61400109 -251.5625 171.6875 C-251.6067511 170.99107391 -251.6510022 170.29464783 -251.69659424 169.57711792 C-252.8873234 149.96920034 -251.88740272 130.60720472 -246.3125 111.6875 C-245.95285156 110.43195313 -245.59320313 109.17640625 -245.22265625 107.8828125 C-240.32724991 92.02631115 -232.54172299 75.99700267 -221.3125 63.6875 C-220.81363281 63.09839844 -220.31476563 62.50929687 -219.80078125 61.90234375 C-195.03020134 32.6934517 -162.13998861 15.87886947 -125.3125 6.6875 C-124.46026855 6.46223633 -123.60803711 6.23697266 -122.72998047 6.00488281 C-83.06349711 -4.40357866 -40.54308973 -2.34895356 0 0 Z " fill="#042222" transform="translate(252.3125,1.3125)"/>
<path d="M0 0 C1.12789444 0.01056427 2.25578888 0.02112854 3.41786194 0.03201294 C4.62631271 0.05995941 5.83476349 0.08790588 7.07983398 0.11669922 C8.32844711 0.13602509 9.57706024 0.15535095 10.86351013 0.17526245 C13.50078502 0.22012216 16.13707072 0.27115281 18.77392578 0.33251953 C22.14860457 0.41021657 25.52304787 0.46089634 28.89833164 0.50340462 C32.12578017 0.54764089 35.35274344 0.61436488 38.57983398 0.67919922 C40.39554649 0.70290085 40.39554649 0.70290085 42.24794006 0.7270813 C43.93505348 0.77129715 43.93505348 0.77129715 45.65625 0.81640625 C46.64488541 0.83655792 47.63352081 0.85670959 48.65211487 0.87747192 C51.68545442 1.36408953 53.06869461 2.17158319 55.26342773 4.29638672 C56.44747705 7.84853467 56.39838864 10.67818598 56.41059875 14.42958069 C56.41427544 15.16108933 56.41795213 15.89259798 56.42174023 16.64627355 C56.43277986 19.10525388 56.4366217 21.56419195 56.44042969 24.02319336 C56.44669515 25.7843845 56.45334202 27.54557432 56.46034241 29.3067627 C56.4814114 35.10668006 56.49176146 40.90659771 56.50170898 46.70654297 C56.50575835 48.71033682 56.50987533 50.71413054 56.51405907 52.71792412 C56.53313304 62.15261362 56.54734792 71.58729529 56.55567104 81.02200037 C56.56539049 91.85817043 56.59156072 102.69413333 56.63217193 113.53023058 C56.66256369 121.9331773 56.67716232 130.33606555 56.68045205 138.73906606 C56.68278048 143.74221989 56.69144458 148.74515309 56.71691322 153.74824715 C56.99226411 210.86131093 56.99226411 210.86131093 45.26342773 235.29638672 C44.50545898 236.92447266 44.50545898 236.92447266 43.73217773 238.58544922 C39.95613768 246.46364187 35.6988713 253.41073027 30.26342773 260.29638672 C29.75295898 260.96025391 29.24249023 261.62412109 28.71655273 262.30810547 C27.62431486 263.68625267 26.45326389 265.00156502 25.26342773 266.29638672 C24.60342773 266.29638672 23.94342773 266.29638672 23.26342773 266.29638672 C23.01850586 267.03630859 22.77358398 267.77623047 22.52124023 268.53857422 C14.60311843 285.89942513 -14.65650748 296.98823363 -31.15014648 303.20629883 C-85.15995789 322.9523567 -148.65132154 319.58794609 -200.89672852 296.33496094 C-217.31280537 288.70636472 -236.07707328 274.77199248 -245.73657227 259.29638672 C-245.73657227 258.63638672 -245.73657227 257.97638672 -245.73657227 257.29638672 C-246.39657227 257.29638672 -247.05657227 257.29638672 -247.73657227 257.29638672 C-249.14994403 255.30086183 -250.42378847 253.32839884 -251.67407227 251.23388672 C-252.3637207 250.10853516 -253.05336914 248.98318359 -253.76391602 247.82373047 C-257.67952146 241.06940529 -260.18811795 233.64666548 -262.73657227 226.29638672 C-262.9513623 225.69084961 -263.16615234 225.0853125 -263.38745117 224.46142578 C-266.25543172 216.29950264 -268.2436252 208.83005206 -268.53122234 200.11009026 C-268.70609109 196.86247493 -269.03256058 193.68721453 -269.46313113 190.46512878 C-270.68944484 181.25447948 -271.01770499 172.20284996 -270.97949219 162.91699219 C-270.98056918 161.36248698 -270.982514 159.80798218 -270.98524475 158.253479 C-270.99002898 154.08828118 -270.98251927 149.92319305 -270.97229171 145.75800848 C-270.96340342 141.36619061 -270.96527072 136.97437509 -270.96565247 132.58255005 C-270.96472058 125.21452029 -270.95610084 117.84653211 -270.94238281 110.47851562 C-270.92665079 101.99822092 -270.92138544 93.51797159 -270.92211837 85.03766334 C-270.9227973 75.95009512 -270.91583895 66.86254403 -270.90667176 57.77498102 C-270.90455552 55.18134526 -270.90383267 52.58771232 -270.90343285 49.99407578 C-270.9024175 45.89811587 -270.8962254 41.80219303 -270.88626671 37.70624542 C-270.88338255 36.21608076 -270.88210787 34.72591182 -270.88269424 33.23574448 C-270.88450794 25.81135805 -270.78453837 18.39222105 -270.41499329 10.97634888 C-270.35829625 9.76442934 -270.30159922 8.5525098 -270.24318409 7.30386543 C-269.73657227 4.29638672 -269.73657227 4.29638672 -268.35740089 2.40353966 C-265.9125203 0.73349466 -263.88840481 0.90007618 -260.95166016 0.87646484 C-259.7635524 0.86055298 -258.57544464 0.84464111 -257.35133362 0.82824707 C-256.06693893 0.82804565 -254.78254425 0.82784424 -253.45922852 0.82763672 C-252.14119736 0.82002319 -250.8231662 0.81240967 -249.4651947 0.80456543 C-246.67511488 0.79111879 -243.885318 0.78955239 -241.09521484 0.79541016 C-237.52251819 0.80130586 -233.95118072 0.77072435 -230.37874699 0.73029327 C-226.96803043 0.69820064 -223.55759569 0.70253255 -220.14672852 0.70263672 C-218.86435806 0.68624146 -217.58198761 0.66984619 -216.26075745 0.6529541 C-215.06949753 0.66225952 -213.87823761 0.67156494 -212.65087891 0.68115234 C-211.60291641 0.6790979 -210.55495392 0.67704346 -209.47523499 0.67492676 C-205.67117921 1.53814673 -204.81571783 3.04253198 -202.73657227 6.29638672 C-202.2343502 9.62841415 -202.2343502 9.62841415 -202.23104858 13.50286865 C-202.2219134 14.57546806 -202.2219134 14.57546806 -202.21259367 15.66973615 C-202.19700411 18.06091861 -202.2097777 20.45109783 -202.22241211 22.84228516 C-202.21695034 24.55926645 -202.20970836 26.27624286 -202.20082092 27.99320984 C-202.18547878 31.69059276 -202.18268434 35.38769816 -202.18958664 39.0851059 C-202.20038709 44.9459462 -202.18296996 50.80649792 -202.16177368 56.66729736 C-202.13149373 65.95420818 -202.11981854 75.24103355 -202.11619723 84.52798963 C-202.10956597 101.11250458 -202.08026097 117.6969584 -202.03110087 134.28140092 C-202.0147216 140.09142796 -202.00916338 145.90133073 -202.01269126 151.71137857 C-202.01313283 155.35159466 -202.00549636 158.99176514 -201.99601555 162.63196754 C-201.9933652 164.3018888 -201.99402811 165.97181968 -201.99852562 167.64173698 C-202.03390816 181.77395144 -202.05272788 197.00599767 -196.73657227 210.29638672 C-196.49197266 210.92013184 -196.24737305 211.54387695 -195.99536133 212.18652344 C-187.582183 233.16111196 -172.45447356 243.53825243 -152.09594727 252.45263672 C-141.00437378 256.83613283 -128.61665616 258.76630424 -116.73657227 259.29638672 C-115.50680664 259.36083984 -114.27704102 259.42529297 -113.01000977 259.49169922 C-84.81518314 260.48174657 -55.88939354 254.53222454 -34.17407227 235.73388672 C-21.18885544 223.26378593 -13.34604569 205.05650755 -12.60070038 187.0058651 C-12.59554665 185.8058568 -12.59039291 184.6058485 -12.58508301 183.36947632 C-12.5808506 182.69650784 -12.57661819 182.02353936 -12.57225752 181.3301779 C-12.55930017 179.08762923 -12.55322236 176.84511606 -12.54711914 174.60253906 C-12.53917024 172.98880297 -12.53078177 171.37506899 -12.52198792 169.76133728 C-12.50395837 166.28942865 -12.48893181 162.8175246 -12.47621155 159.3455925 C-12.45590448 153.83677984 -12.42825647 148.32801871 -12.39953613 142.81924438 C-12.3394976 131.10331627 -12.28776225 119.38735628 -12.23657227 107.67138672 C-12.18134064 95.06844918 -12.12441751 82.4655276 -12.05902338 69.86263812 C-12.03553761 65.29353757 -12.01394856 60.72444497 -11.99693298 56.1553154 C-11.96060968 46.51772082 -11.90691023 36.88089985 -11.78604126 27.24394989 C-11.75482894 24.75324655 -11.72779064 22.26248416 -11.70663452 19.77167511 C-11.67503742 16.87694092 -11.61167016 13.98552606 -11.53149414 11.09179688 C-11.52684395 10.30893499 -11.52219376 9.52607311 -11.51740265 8.71948814 C-11.43371582 6.61880493 -11.43371582 6.61880493 -10.73657227 3.29638672 C-7.3501644 0.25378654 -4.44704409 -0.06911765 0 0 Z " fill="#042222" transform="translate(659.736572265625,2.70361328125)"/>
<path d="M0 0 C10.14031586 -0.12125981 20.27952858 -0.17513084 30.42053223 -0.1862793 C34.8504618 -0.19186768 39.28009985 -0.21620359 43.70993614 -0.24425125 C47.16896446 -0.26286376 50.62792001 -0.26808141 54.08699417 -0.26961517 C55.72238471 -0.27262047 57.35777464 -0.28057621 58.99311447 -0.29380035 C61.26147584 -0.31091247 63.52908514 -0.30897421 65.79748535 -0.30249023 C67.08013275 -0.30613586 68.36278015 -0.30978149 69.68429565 -0.3135376 C74.88431913 0.21613719 78.8340138 1.57849628 82.58898926 5.37817383 C84.3661161 8.17021944 85.46642036 10.73971798 86.54211426 13.86645508 C88.49328386 19.19441664 90.76639698 24.19425272 93.35461426 29.24145508 C95.92122626 34.2606993 98.293481 39.2447512 100.31164551 44.51489258 C103.36047804 52.41027564 106.75836058 60.11057956 110.66711426 67.61645508 C113.51262395 73.20828458 115.80901795 78.85782189 117.97961426 84.74145508 C122.36788218 96.59844666 127.52907249 108.07328071 132.73205566 119.59106445 C135.25569897 125.1928417 137.74041731 130.81180988 140.22961426 136.42895508 C143.40139985 143.57598222 146.58626834 150.71687752 149.79602051 157.84692383 C150.08871323 158.49763855 150.38140594 159.14835327 150.68296814 159.81878662 C152.09564283 162.95936883 153.51023543 166.09903555 154.92858887 169.23706055 C157.51954941 174.99320994 160.0220296 180.75991835 162.33117676 186.63476562 C164.0716429 191.01644219 165.9357825 195.34540245 167.79211426 199.67895508 C168.16980957 200.5684082 168.54750488 201.45786133 168.93664551 202.37426758 C171.21653919 207.70185419 173.6621088 212.89051024 176.29211426 218.05395508 C178.24908995 222.39333595 179.96786072 226.79481032 181.66711426 231.24145508 C185.69471334 241.73942782 190.14116913 251.93085862 194.99645996 262.06860352 C197.45019086 267.21169693 199.71191709 272.38832101 201.83117676 277.67895508 C203.08720575 280.58058354 204.42232773 283.40441791 205.81555176 286.24145508 C206.27260498 287.17618652 206.7296582 288.11091797 207.20056152 289.07397461 C208.12051573 290.94459615 209.05035749 292.81039486 209.99108887 294.6706543 C214.21429534 303.27060931 214.21429534 303.27060931 213.29211426 308.05395508 C209.77516771 310.39858611 208.30462614 310.31608986 204.14001465 310.34448242 C202.87182388 310.35724213 201.60363312 310.37000183 200.29701233 310.38314819 C198.9112666 310.3862055 197.52551884 310.38843345 196.13977051 310.38989258 C194.71874354 310.3963196 193.2977179 310.40304789 191.87669373 310.4100647 C188.89835543 310.42203897 185.92013313 310.42574534 182.94177246 310.42456055 C179.12717302 310.42435725 175.31331771 310.45166881 171.49889469 310.48610497 C168.56404714 310.50835236 165.62937935 310.51239879 162.6944561 310.51134109 C161.28823721 310.51369996 159.88201358 310.52253972 158.47587776 310.53800583 C156.50855232 310.55761975 154.54100857 310.54931708 152.5736084 310.53979492 C151.45458633 310.54264496 150.33556427 310.545495 149.18263245 310.5484314 C145.64009138 309.94241457 144.50933987 308.81731375 142.29211426 306.05395508 C141.15466309 304.09716797 141.15466309 304.09716797 140.24914551 302.02661133 C139.90230713 301.24535889 139.55546875 300.46410645 139.19812012 299.65917969 C138.83726318 298.82008057 138.47640625 297.98098145 138.10461426 297.11645508 C137.71733154 296.23546143 137.33004883 295.35446777 136.93103027 294.44677734 C135.7073164 291.65370539 134.49825528 288.85465542 133.29211426 286.05395508 C132.9082959 285.16804688 132.52447754 284.28213867 132.12902832 283.36938477 C129.85623745 278.12194032 127.60734998 272.86474651 125.37414551 267.6003418 C124.33136797 265.14633239 123.28122561 262.69559564 122.22961426 260.24536133 C118.74118949 252.08000767 115.44954528 243.87672772 112.35461426 235.55395508 C109.55381685 228.04820132 106.38589506 220.84875599 102.86755371 213.65527344 C97.91293473 203.40174402 93.807076 192.78772038 89.57067871 182.22338867 C85.91957609 173.17266991 82.06842786 164.22145661 78.10461426 155.30395508 C73.92817659 145.86268335 69.88334342 136.37542496 65.93981934 126.8347168 C62.75410999 119.13256683 59.48654098 111.46828917 56.15881348 103.82641602 C54.75336047 100.57805544 53.40025491 97.37963447 52.28430176 94.01879883 C50.92884236 89.96843 49.17422167 86.13125978 47.41711426 82.24145508 C46.73221842 80.71411133 46.04732259 79.18676758 45.36242676 77.65942383 C45.02114746 76.9045166 44.67986816 76.14960937 44.32824707 75.37182617 C43.62199609 73.79191411 42.92914797 72.20595854 42.24816895 70.61499023 C41.90946777 69.82785645 41.5707666 69.04072266 41.22180176 68.22973633 C40.92257812 67.52373291 40.62335449 66.81772949 40.31506348 66.09033203 C39.11948719 63.71030773 38.20587441 61.93490345 36.29211426 60.05395508 C33.19653568 59.50043313 33.19653568 59.50043313 29.65539551 59.66333008 C27.7072998 59.68266602 27.7072998 59.68266602 25.71984863 59.70239258 C24.34809323 59.73581406 22.97634844 59.76967385 21.60461426 59.80395508 C20.22117614 59.82402132 18.83771041 59.84227189 17.45422363 59.85864258 C14.06615776 59.90586301 10.67948185 59.97171439 7.29211426 60.05395508 C6.97758301 60.89958008 6.66305176 61.74520508 6.33898926 62.61645508 C4.20606552 68.26998788 2.03926721 73.77852113 -0.75622559 79.13549805 C-2.60028486 82.85294746 -4.02330155 86.7496145 -5.52038574 90.61645508 C-7.97233729 96.8674322 -10.53924874 103.00655832 -13.45788574 109.05395508 C-15.98734583 114.30901174 -17.9950735 119.58122218 -19.74694824 125.14379883 C-22.59158832 133.7586641 -26.44112448 141.99064819 -30.73913574 149.96801758 C-32.63266818 153.56859819 -34.05370735 157.00381928 -35.14538574 160.92895508 C-36.40062925 165.36954772 -38.18815813 169.21197613 -40.32116699 173.29223633 C-42.50056746 177.63261979 -44.33660432 182.11336019 -46.22741699 186.58520508 C-47.96202661 190.64940913 -49.78772966 194.66653407 -51.62976074 198.68286133 C-52.49520874 200.58621978 -53.32604971 202.50529656 -54.14538574 204.42895508 C-55.08887769 206.61785639 -56.06013412 208.79547794 -57.08288574 210.94848633 C-60.08274757 217.27069513 -62.68739856 223.5126496 -64.75085449 230.20239258 C-65.88268777 233.57479377 -67.27838061 236.80084566 -68.70788574 240.05395508 C-69.40450319 241.67188342 -70.09971695 243.29041659 -70.79382324 244.90942383 C-71.16475098 245.7733374 -71.53567871 246.63725098 -71.91784668 247.52734375 C-72.49454102 248.87082886 -72.49454102 248.87082886 -73.08288574 250.24145508 C-73.48281738 251.17256104 -73.88274902 252.10366699 -74.2947998 253.06298828 C-76.38661673 257.94120392 -78.44911958 262.82829453 -80.45788574 267.74145508 C-81.86160115 271.14570368 -83.37732616 274.41638464 -85.08288574 277.67895508 C-87.87476719 283.08712794 -89.96361758 288.74342104 -92.03356934 294.45874023 C-96.96271529 307.68136985 -96.96271529 307.68136985 -101.70788574 310.05395508 C-103.72947501 310.15058062 -105.7543016 310.1819202 -107.77819824 310.18334961 C-109.05291992 310.18650177 -110.3276416 310.18965393 -111.64099121 310.19290161 C-113.03828974 310.19111177 -114.43558795 310.18906081 -115.83288574 310.18676758 C-117.260132 310.18744093 -118.68737815 310.18841122 -120.11462402 310.18966675 C-123.1073109 310.19114223 -126.09996795 310.18899395 -129.09265137 310.18432617 C-132.93297703 310.17862896 -136.77323281 310.18190876 -140.61355591 310.18789864 C-143.5611626 310.19150827 -146.50875267 310.1903638 -149.45635986 310.18777084 C-150.87257902 310.18710269 -152.28879968 310.18792612 -153.70501709 310.1902504 C-155.68253552 310.19278345 -157.66005923 310.18823965 -159.63757324 310.18334961 C-161.32729248 310.18215622 -161.32729248 310.18215622 -163.05114746 310.18093872 C-165.70788574 310.05395508 -165.70788574 310.05395508 -167.70788574 309.05395508 C-168.26559919 302.69095165 -166.47414244 298.71188041 -163.58288574 293.11645508 C-160.62060444 287.13980078 -157.84782049 281.20563184 -155.58288574 274.92895508 C-153.52880364 269.25376654 -151.37582922 263.63757239 -149.08288574 258.05395508 C-148.80557617 257.37187988 -148.5282666 256.68980469 -148.24255371 255.98706055 C-146.5464275 251.877951 -144.66370332 247.90973691 -142.64978027 243.94750977 C-141.30239646 241.23877238 -140.12858956 238.46798476 -138.95788574 235.67895508 C-133.88125943 223.72266892 -128.59197382 211.86608008 -123.0736084 200.10717773 C-119.82732314 193.18938693 -116.77032007 186.20672002 -113.77038574 179.17895508 C-110.63664958 171.85384679 -107.38141425 164.59511276 -103.98132324 157.38989258 C-101.04092225 151.15205875 -98.15776654 144.92377509 -95.66101074 138.49145508 C-94.5945315 135.76406554 -93.46737311 133.06624779 -92.33288574 130.36645508 C-90.3864169 125.71888639 -88.50410364 121.04948897 -86.64538574 116.36645508 C-82.95242857 107.0897093 -78.86539202 98.13002122 -74.26257324 89.27270508 C-71.80423689 84.47956687 -69.52029382 79.77847262 -67.77038574 74.67895508 C-66.05163731 69.70813492 -63.81128333 65.13044109 -61.4173584 60.45239258 C-56.5355236 50.86038047 -52.60310552 40.91322096 -48.8939209 30.82202148 C-47.07766165 25.9215936 -45.02522295 21.17846802 -42.78991699 16.45239258 C-41.78280878 14.22002998 -40.98031735 12.00056516 -40.20788574 9.67895508 C-38.45816973 5.45047471 -37.41361754 3.7661335 -33.70788574 1.05395508 C-29.62486424 0.24860831 -25.57072598 0.27365257 -21.41882324 0.25708008 C-20.1560556 0.23349426 -18.89328796 0.20990845 -17.59225464 0.18560791 C-14.05801651 0.12223621 -10.52419604 0.09265841 -6.98948669 0.07046509 C-4.65954111 0.05360525 -2.32983584 0.02809933 0 0 Z " fill="#042222" transform="translate(885.7078857421875,2.946044921875)"/>
<path d="M0 0 C1.1849556 -0.00637985 2.36991119 -0.0127597 3.59077454 -0.01933289 C4.87719345 -0.02044571 6.16361237 -0.02155853 7.48901367 -0.02270508 C8.8060881 -0.02603348 10.12316254 -0.02936188 11.48014832 -0.03279114 C14.27193012 -0.03878421 17.06368096 -0.04063094 19.85546875 -0.04003906 C23.42651618 -0.03993762 26.99736396 -0.05357022 30.56836414 -0.07081127 C33.97941695 -0.08463306 37.39043323 -0.08402091 40.80151367 -0.08520508 C42.08185989 -0.09239059 43.36220612 -0.09957611 44.68135071 -0.10697937 C45.87576279 -0.10390274 47.07017487 -0.10082611 48.30078125 -0.09765625 C49.87391838 -0.09979378 49.87391838 -0.09979378 51.47883606 -0.10197449 C54.7249284 0.17808725 57.95897123 0.75975248 60.34448242 3.14526367 C61.15795615 9.14226769 58.61140979 13.34578036 55.96948242 18.52026367 C51.54142622 27.47123452 47.57667553 36.53996048 43.83325195 45.79711914 C41.60355024 51.272743 39.19162456 56.57303983 36.50292969 61.83837891 C34.85765798 65.11470606 33.40686431 68.46137022 31.96948242 71.83276367 C29.61367366 77.2896592 27.18560819 82.70372422 24.65698242 88.08276367 C21.11190486 95.62897674 17.73538966 103.22417923 14.46948242 110.89526367 C12.47946333 115.55702125 10.42454927 120.17668848 8.28198242 124.77026367 C5.92503491 129.82877766 3.72384658 134.93065375 1.61791992 140.09838867 C-0.07308018 144.14433983 -1.86353098 148.14321568 -3.65551758 152.14526367 C-7.65761075 161.09471758 -11.64792735 170.03843953 -15.38598633 179.10229492 C-19.14972066 188.1236766 -23.11172377 197.05409397 -27.28051758 205.89526367 C-31.06325813 213.92274294 -34.44495855 222.08668471 -37.71801758 230.33276367 C-39.21323836 234.08861586 -40.80034808 237.78772196 -42.46020508 241.47338867 C-44.02835715 244.97866978 -45.55885907 248.50000181 -47.09301758 252.02026367 C-49.03633292 256.47503461 -50.99596293 260.91869528 -53.03051758 265.33276367 C-55.48094791 270.69612277 -57.82381662 276.10450085 -60.15551758 281.52026367 C-60.5494873 282.43380615 -60.94345703 283.34734863 -61.34936523 284.28857422 C-63.9251096 290.30817621 -66.28878016 296.34822939 -68.38989258 302.55151367 C-70.09579947 306.04756976 -71.53268929 307.7516175 -74.65551758 310.14526367 C-78.34071306 310.9533457 -81.99504048 310.92259309 -85.75708008 310.93823242 C-86.92034821 310.96161179 -88.08361633 310.98499115 -89.28213501 311.00907898 C-92.65049911 311.0685207 -96.01753403 311.10315086 -99.38624573 311.12676239 C-101.76255314 311.14613633 -104.13859133 311.17505403 -106.51477051 311.20635986 C-117.44540846 311.34917008 -128.37488527 311.41740059 -139.30639648 311.44042969 C-144.13348525 311.45169441 -148.96013804 311.48643251 -153.78706932 311.52560139 C-157.54111604 311.5516679 -161.29505363 311.56011025 -165.04918289 311.56371117 C-166.83137753 311.56856587 -168.61356767 311.58014788 -170.39567184 311.59874916 C-172.86596365 311.6230332 -175.33504599 311.62220152 -177.80541992 311.61523438 C-178.89302109 311.63444946 -178.89302109 311.63444946 -180.00259399 311.65405273 C-184.83095516 311.60435644 -187.25511029 310.55318289 -190.65551758 307.14526367 C-191.77050781 305.33691406 -191.77050781 305.33691406 -192.46411133 303.49291992 C-192.73280029 302.80601074 -193.00148926 302.11910156 -193.27832031 301.41137695 C-193.54717041 300.68418457 -193.81602051 299.95699219 -194.09301758 299.20776367 C-194.6948981 297.66390171 -195.29908695 296.12093777 -195.90551758 294.57885742 C-196.34831055 293.4416626 -196.34831055 293.4416626 -196.80004883 292.28149414 C-197.95726806 289.39174864 -199.26082003 286.58308295 -200.59301758 283.77026367 C-203.00452842 278.63546355 -205.22925571 273.44484641 -207.40551758 268.20776367 C-210.31073157 261.22473666 -213.36770586 254.32774502 -216.53051758 247.45776367 C-220.66119668 238.48126462 -224.52542328 229.41328165 -228.2565918 220.26367188 C-228.64347168 219.31967529 -229.03035156 218.37567871 -229.42895508 217.40307617 C-229.93048096 216.16775146 -229.93048096 216.16775146 -230.44213867 214.9074707 C-231.42332443 212.6738418 -232.46057138 210.51341934 -233.56030273 208.33789062 C-235.6420294 204.21604642 -237.54166793 200.02944858 -239.40551758 195.80541992 C-239.74550781 195.03902695 -240.08549805 194.27263397 -240.43579102 193.48301697 C-241.51079947 191.05871064 -242.58321489 188.63326783 -243.65551758 186.20776367 C-244.37409349 184.58594174 -245.09284214 182.96419633 -245.81176758 181.3425293 C-247.44599751 177.65554657 -249.07842074 173.96776957 -250.7094574 170.27937317 C-251.38178317 168.76274997 -252.05638948 167.24713684 -252.7325592 165.73222351 C-253.26495461 164.53917351 -253.26495461 164.53917351 -253.80810547 163.32202148 C-254.13033585 162.60145569 -254.45256622 161.88088989 -254.78456116 161.13848877 C-255.97974623 158.40325103 -257.04545421 155.62747425 -258.09301758 152.83276367 C-261.29693021 144.42003604 -264.5763419 136.07709179 -268.69067383 128.06323242 C-271.3160199 122.84442708 -273.54412636 117.46369415 -275.65551758 112.02026367 C-276.81315405 109.08095232 -278.0287419 106.35232007 -279.65551758 103.64526367 C-281.69630081 100.23604828 -283.09859776 96.69533535 -284.53442383 92.99682617 C-288.31111218 83.39061537 -292.600449 74.0204008 -296.99145508 64.68432617 C-302.99853987 51.90869514 -302.99853987 51.90869514 -305.46801758 45.52026367 C-307.28824809 40.87757047 -309.38943761 36.3957788 -311.53051758 31.89526367 C-316.70213428 20.97525656 -316.70213428 20.97525656 -319.15551758 15.45776367 C-319.88254883 13.84321289 -319.88254883 13.84321289 -320.62426758 12.19604492 C-321.72450934 8.94116305 -322.00679167 6.5555496 -321.65551758 3.14526367 C-318.93429411 0.4240402 -317.44240714 0.87514087 -313.6328125 0.83886719 C-311.73525459 0.81488609 -311.73525459 0.81488609 -309.79936218 0.79042053 C-308.41157431 0.78404332 -307.02378162 0.77865074 -305.63598633 0.77416992 C-304.21592614 0.76520493 -302.79586693 0.75608311 -301.37580872 0.74681091 C-298.39569808 0.73030587 -295.41569996 0.7226184 -292.43554688 0.71972656 C-288.62199112 0.71434864 -284.80949768 0.67670184 -280.99624157 0.6309824 C-278.06134719 0.60119127 -275.12670761 0.59400255 -272.19167519 0.59300041 C-270.78625956 0.58880014 -269.38084304 0.57637324 -267.9755764 0.55548286 C-266.00603468 0.5285415 -264.03610983 0.53650544 -262.06640625 0.54589844 C-260.38667976 0.53829247 -260.38667976 0.53829247 -258.67301941 0.53053284 C-254.70130229 1.33965811 -253.22321436 3.08909841 -250.65551758 6.14526367 C-249.38867188 8.23144531 -249.38867188 8.23144531 -248.47973633 10.30541992 C-248.13064209 11.08949219 -247.78154785 11.87356445 -247.421875 12.68139648 C-247.06585205 13.51509766 -246.7098291 14.34879883 -246.34301758 15.20776367 C-245.96056885 16.07884766 -245.57812012 16.94993164 -245.18408203 17.84741211 C-242.09523462 24.9480059 -239.19053367 32.12405931 -236.39453125 39.34472656 C-234.9446634 43.06516408 -233.43300178 46.67747899 -231.60864258 50.23120117 C-229.64416107 54.0603478 -228.15602913 57.96940101 -226.71801758 62.02026367 C-224.75103218 67.41333032 -222.58978807 72.52921339 -219.92504883 77.62182617 C-217.85377794 81.73887538 -216.11770722 85.99561208 -214.32348633 90.23901367 C-212.48796902 94.56519361 -210.57221593 98.8545813 -208.65551758 103.14526367 C-207.32050938 106.14452089 -205.9875878 109.14470059 -204.65551758 112.14526367 C-204.36612305 112.79591797 -204.07672852 113.44657227 -203.77856445 114.11694336 C-201.2108445 119.91100648 -198.7455519 125.65889896 -196.84301758 131.70776367 C-194.69134542 138.45208061 -191.8365658 144.86702019 -189.01269531 151.34985352 C-186.85711152 156.30782989 -184.79588658 161.26777498 -182.90551758 166.33276367 C-181.1702402 170.96613317 -179.11881787 175.29239248 -176.84301758 179.68041992 C-175.19608048 183.09889791 -173.96104759 186.62063354 -172.74536133 190.21166992 C-171.23559585 194.27559062 -169.44120949 198.19633355 -167.65551758 202.14526367 C-166.99983452 203.60977851 -166.34487374 205.07461696 -165.69067383 206.53979492 C-165.36800537 207.26175049 -165.04533691 207.98370605 -164.71289062 208.72753906 C-155.43806118 229.51908923 -155.43806118 229.51908923 -153.15551758 236.77026367 C-152.08143576 240.16592211 -150.6771183 243.24569083 -149.06176758 246.41870117 C-148.38597656 247.75167236 -148.38597656 247.75167236 -147.6965332 249.11157227 C-147.18123047 250.11824951 -147.18123047 250.11824951 -146.65551758 251.14526367 C-142.43805433 251.24418478 -138.22120637 251.31675379 -134.00292969 251.36499023 C-132.56823972 251.38509892 -131.13363164 251.4123904 -129.69921875 251.44702148 C-127.63626919 251.49557828 -125.57440327 251.51823773 -123.51098633 251.53588867 C-122.26986084 251.55683594 -121.02873535 251.5777832 -119.75 251.59936523 C-116.63367779 251.44329156 -116.63367779 251.44329156 -114.88037109 249.47705078 C-113.49590127 246.84139774 -112.30804033 244.21172092 -111.20239258 241.44604492 C-110.75130127 240.32689697 -110.30020996 239.20774902 -109.83544922 238.0546875 C-109.36357178 236.86770264 -108.89169434 235.68071777 -108.40551758 234.45776367 C-107.41998237 232.00978988 -106.43430537 229.56187317 -105.44848633 227.11401367 C-104.73184814 225.32543945 -104.73184814 225.32543945 -104.00073242 223.50073242 C-102.25519904 219.14671957 -100.49391729 214.79946638 -98.71801758 210.45776367 C-98.46052734 209.81943604 -98.20303711 209.1811084 -97.93774414 208.5234375 C-96.6901945 205.47183324 -95.34911886 202.50831553 -93.83520508 199.58276367 C-90.74804055 193.50465602 -88.28812121 187.14149109 -85.71801758 180.83276367 C-79.99187068 166.79858313 -79.99187068 166.79858313 -77.07739258 160.47338867 C-74.46214461 154.79631054 -72.1393647 149.0198911 -69.84301758 143.20776367 C-68.96802043 141.00724171 -68.09302039 138.80672089 -67.21801758 136.60620117 C-66.7874707 135.52048828 -66.35692383 134.43477539 -65.91333008 133.31616211 C-63.11738309 126.26768395 -60.30507009 119.22575783 -57.47680664 112.19018555 C-56.77050232 110.43156339 -56.06809843 108.67137562 -55.36645508 106.91088867 C-52.52972373 99.9251965 -49.29579859 93.15680598 -46.03173828 86.36401367 C-43.63454339 81.33435942 -41.42202804 76.27629876 -39.40551758 71.08276367 C-37.44899121 66.04551899 -35.28176538 61.25556197 -32.80395508 56.45776367 C-30.32486556 51.46585553 -28.43987503 46.22135171 -26.47192383 41.01245117 C-24.14845897 34.88892697 -21.68407058 28.90776899 -18.90551758 22.97729492 C-17.50676428 19.80824448 -16.33563363 16.58914639 -15.15551758 13.33276367 C-12.08320217 5.18192058 -9.21685227 0.03357583 0 0 Z " fill="#042222" transform="translate(1337.655517578125,2.854736328125)"/>
<path d="M0 0 C0.7434668 0.00465271 1.48693359 0.00930542 2.25292969 0.01409912 C7.34250922 0.04876617 12.43069213 0.11417282 17.51953125 0.20751953 C19.27430839 0.23613003 21.02922403 0.25713948 22.78417969 0.27099609 C25.35937764 0.29238478 27.93306746 0.33889128 30.5078125 0.390625 C31.67813522 0.39246796 31.67813522 0.39246796 32.87210083 0.39434814 C36.38017205 0.48884652 38.75699107 0.86050929 41.81860352 2.61791992 C44.43738491 5.47762334 45.82132477 8.17715695 47.39453125 11.72265625 C47.68810013 12.378069 47.98166901 13.03348175 48.28413391 13.70875549 C51.60706988 21.20579853 54.65642543 28.81899858 57.6875 36.4375 C60.87321017 44.43367877 64.03580283 52.34900997 68 60 C68.68186278 61.66050756 69.35059455 63.32653211 70 65 C70.86381972 66.90095358 71.73997904 68.79632393 72.625 70.6875 C78.77362477 83.95011332 84.61236643 97.35042913 90.41113281 110.76904297 C92.79092922 116.26514678 95.23278952 121.72819312 97.72094727 127.17602539 C99.98712688 132.179442 102.17474461 137.21733938 104.375 142.25 C107.48573677 149.35001467 110.61977672 156.43156508 113.9375 163.4375 C116.1039643 168.02139018 118.07854653 172.61693069 119.90625 177.34375 C121.59784373 181.45190621 123.52788192 185.44772234 125.42919922 189.46166992 C127.48010499 193.81584117 129.31120875 198.20905651 131.046875 202.6953125 C132.04123591 205.09970979 133.1783692 207.37754814 134.375 209.6875 C136.75854905 214.33868082 138.666284 219.11251382 140.55810547 223.98144531 C142.49948267 228.9077665 144.69707073 233.67092129 147 238.4375 C149.97312126 244.60769191 152.5215985 250.824397 154.85375977 257.26147461 C156.77699227 262.5280425 159.02642554 267.58269969 161.43359375 272.6484375 C163.52036626 277.11340211 165.44070825 281.64535466 167.37670898 286.17724609 C169.56324085 291.21048719 172.11551833 295.91406753 175.03125 300.5703125 C176.30178229 303.75688945 175.92403353 305.73816165 175 309 C171.91037836 310.54481082 168.62607315 310.24110553 165.23046875 310.31640625 C164.05355972 310.34778183 164.05355972 310.34778183 162.85287476 310.37979126 C160.29785172 310.44610032 157.74273355 310.50491199 155.1875 310.5625 C154.32430145 310.58301422 153.46110291 310.60352844 152.57174683 310.62466431 C146.71474891 310.76365966 140.85753946 310.88633247 135 311 C133.76604492 311.02481445 132.53208984 311.04962891 131.26074219 311.07519531 C128.36123148 311.12730349 125.46235895 311.16327326 122.5625 311.1875 C121.76803467 311.20047119 120.97356934 311.21344238 120.1550293 311.22680664 C109.3450296 311.24469017 109.3450296 311.24469017 105.58496094 307.64550781 C102.04711616 303.06476095 100.21150846 297.84807424 98.3125 292.4375 C95.55949085 284.91119754 92.56067691 277.5819349 89.1875 270.3125 C82.04992494 254.88885421 75.32088285 239.27491271 69.3125 223.375 C66.90185988 217.00827221 64.1022074 210.96068041 60.98852539 204.90917969 C56.49150718 196.14912379 52.57809904 187.11016914 49 177.9375 C47.33634755 173.67394046 45.40251728 169.56759058 43.4375 165.4375 C41.24637444 160.82117866 39.26776159 156.25931506 37.78491211 151.36474609 C34.7299979 142.161045 30.41376448 133.30102544 26.5 124.4375 C26.03980469 123.39142578 25.57960938 122.34535156 25.10546875 121.26757812 C22.89244395 116.24619369 20.65238825 111.24170177 18.34765625 106.26171875 C16.27051268 101.70734962 14.52577305 97.1185751 12.9375 92.375 C10.88812479 86.43876662 8.7627074 80.64841206 6 75 C5.72478516 74.43587402 5.44957031 73.87174805 5.16601562 73.29052734 C2.20114558 66.19964366 2.20114558 66.19964366 -2 60 C-4.14558827 59.91224395 -6.29404421 59.89304781 -8.44140625 59.90234375 C-9.74658203 59.90556641 -11.05175781 59.90878906 -12.39648438 59.91210938 C-13.7851569 59.92046599 -15.17382877 59.92893095 -16.5625 59.9375 C-17.95507656 59.94251334 -19.34765481 59.94707653 -20.74023438 59.95117188 C-24.1601987 59.96300566 -27.58007844 59.9794912 -31 60 C-31.2266333 60.54938232 -31.4532666 61.09876465 -31.68676758 61.66479492 C-32.72460495 64.17407035 -33.76849279 66.68078567 -34.8125 69.1875 C-35.16892578 70.05181641 -35.52535156 70.91613281 -35.89257812 71.80664062 C-37.68263732 76.09292916 -39.59369494 80.02166757 -42 84 C-42.718833 85.939792 -43.38441956 87.90001276 -44 89.875 C-45.45338599 94.37775432 -47.03978148 98.68751925 -49 103 C-49.3815625 103.84175781 -49.763125 104.68351562 -50.15625 105.55078125 C-51.0190534 107.45263142 -51.88367275 109.35365867 -52.75 111.25390625 C-57.57474012 121.8532572 -62.165426 132.55463534 -66.625 143.3125 C-68.32441751 147.40728695 -70.08013278 151.46857776 -71.8984375 155.51171875 C-73.82979464 159.87439428 -75.67603076 164.27412044 -77.53515625 168.66796875 C-78.45630143 170.76326698 -79.43612535 172.83467333 -80.49609375 174.86328125 C-82.04006755 178.08356947 -83.14364397 181.27421629 -84.23632812 184.66650391 C-87.73741359 195.36451378 -92.1602119 205.58797241 -97.3125 215.58203125 C-101.1709652 223.39720962 -104.12311119 231.61560606 -107.14599609 239.78149414 C-107.38656738 240.43110107 -107.62713867 241.08070801 -107.875 241.75 C-108.11814941 242.40669678 -108.36129883 243.06339355 -108.61181641 243.73999023 C-111.20302747 250.66627241 -114.09384087 257.45960332 -116.9921875 264.26171875 C-118.59829612 268.03368717 -120.15750956 271.82242461 -121.69799805 275.62158203 C-131.70309873 300.25430379 -131.70309873 300.25430379 -138 309 C-141.23148332 310.07716111 -143.58535481 310.13333015 -146.984375 310.14526367 C-148.83144043 310.15483345 -148.83144043 310.15483345 -150.71582031 310.16459656 C-152.06054648 310.16612505 -153.40527317 310.16723911 -154.75 310.16796875 C-156.12858108 310.17118206 -157.50716182 310.17454619 -158.88574219 310.17805481 C-161.77409659 310.18404076 -164.66242108 310.1858952 -167.55078125 310.18530273 C-171.25315099 310.185201 -174.95532945 310.19886723 -178.65765381 310.21607494 C-181.50407799 310.22718727 -184.35045576 310.2292222 -187.19689941 310.22869301 C-188.56205913 310.22987374 -189.92722002 310.23430078 -191.2923584 310.24202538 C-193.20008885 310.25181167 -195.1078754 310.24768649 -197.015625 310.24291992 C-198.10133789 310.24434494 -199.18705078 310.24576996 -200.30566406 310.24723816 C-203 310 -203 310 -206 308 C-206.68734602 302.43937067 -205.22608773 298.43002824 -202.75 293.5625 C-202.26793091 292.57310425 -202.26793091 292.57310425 -201.77612305 291.5637207 C-200.86513326 289.70151322 -199.93732207 287.84906628 -199 286 C-198.59910156 285.20851563 -198.19820312 284.41703125 -197.78515625 283.6015625 C-197.30369141 282.65410156 -197.30369141 282.65410156 -196.8125 281.6875 C-194.99852165 278.11334775 -193.52758361 274.43733109 -192.06640625 270.70703125 C-188.38608489 261.36467702 -184.58583382 252.0021994 -180 243.0625 C-178.13117163 239.38279142 -176.63198977 235.6119108 -175.1328125 231.76953125 C-173.84923907 228.63141551 -172.4363151 225.57111597 -171 222.5 C-168.81267258 217.8175805 -166.80112063 213.11047819 -164.9140625 208.30078125 C-162.8942524 203.21672934 -160.60616279 198.25993052 -158.25 193.32421875 C-152.49017788 181.24513111 -147.20559495 169.00186006 -142.22265625 156.58203125 C-139.05428504 148.71292656 -135.63848464 141.08997949 -131.77612305 133.53540039 C-129.58544568 129.23414649 -127.63805303 124.91662608 -125.91796875 120.40234375 C-124.87766517 117.67984716 -123.75581691 114.99863606 -122.625 112.3125 C-120.70547671 107.72566368 -118.83933827 103.11944706 -117 98.5 C-116.48459814 97.21084827 -115.96897587 95.92178463 -115.453125 94.6328125 C-114.58494852 92.46237131 -113.71942026 90.29086354 -112.859375 88.1171875 C-109.77812264 80.50085245 -106.22788274 73.12911777 -102.66650391 65.72924805 C-99.92970261 60.02166488 -97.37839109 54.29678948 -95.01171875 48.42578125 C-93.80465783 45.53163131 -92.40076187 42.7736164 -90.96484375 39.98828125 C-89.46123096 36.88974314 -88.24416583 33.68564136 -86.98828125 30.48046875 C-85.80733307 27.51642884 -84.52205794 24.61182404 -83.203125 21.70703125 C-82.20627141 19.46411067 -81.24525781 17.21278232 -80.296875 14.94921875 C-79.99112549 14.22814941 -79.68537598 13.50708008 -79.37036133 12.76416016 C-78.75633832 11.31499515 -78.14920541 9.86288821 -77.54956055 8.40771484 C-76.03927435 4.8693787 -75.27508029 3.18338686 -72 1 C-69.57623291 0.7215271 -69.57623291 0.7215271 -66.66503906 0.68115234 C-65.02622772 0.65134781 -65.02622772 0.65134781 -63.35430908 0.62094116 C-62.17004333 0.60938995 -60.98577759 0.59783875 -59.765625 0.5859375 C-58.54027039 0.56657135 -57.31491577 0.5472052 -56.0524292 0.5272522 C-52.11835771 0.46740096 -48.18425346 0.42116652 -44.25 0.375 C-41.64451842 0.3368031 -39.03904923 0.29775038 -36.43359375 0.2578125 C-24.28966731 0.07823932 -12.14535183 -0.09125606 0 0 Z " fill="#042222" transform="translate(1518,3)"/>
</svg>
